<svg xmlns="http://www.w3.org/2000/svg" viewBox="0 0 32 32" width="32" height="32">
  <!-- Dark blue background -->
  <circle cx="16" cy="16" r="16" fill="#003D7A"/>

  <!-- Large 4-pointed star, white, upper-left of center -->
  <polygon points="11,5 12.2,9.8 17,11 12.2,12.2 11,17 9.8,12.2 5,11 9.8,9.8" fill="white"/>

  <!-- Medium 4-pointed star, white, lower-right -->
  <polygon points="21,18 21.9,21.1 25,22 21.9,22.9 21,26 20.1,22.9 17,22 20.1,21.1" fill="white"/>

  <!-- Small 4-pointed star, sky blue, upper-right -->
  <polygon points="24,7 24.7,9.3 27,10 24.7,10.7 24,13 23.3,10.7 21,10 23.3,9.3" fill="#E8F4FD"/>

  <!-- Tiny dot sparkles scattered around -->
  <circle cx="18" cy="5" r="1" fill="white" opacity="0.9"/>
  <circle cx="26" cy="16" r="0.8" fill="white" opacity="0.8"/>
  <circle cx="7" cy="20" r="0.7" fill="white" opacity="0.7"/>
  <circle cx="15" cy="26" r="0.9" fill="#E8F4FD" opacity="0.85"/>
  <circle cx="4" cy="7" r="0.6" fill="white" opacity="0.6"/>
  <circle cx="22" cy="15" r="0.5" fill="#E8F4FD" opacity="0.75"/>
  <circle cx="9" cy="27" r="0.6" fill="white" opacity="0.65"/>
</svg>
